<?xml version="1.0" encoding="UTF-8" standalone="no"?>
<!-- Created with Inkscape (http://www.inkscape.org/) -->

<svg
   xmlns:dc="http://purl.org/dc/elements/1.1/"
   xmlns:cc="http://creativecommons.org/ns#"
   xmlns:rdf="http://www.w3.org/1999/02/22-rdf-syntax-ns#"
   xmlns:svg="http://www.w3.org/2000/svg"
   xmlns="http://www.w3.org/2000/svg"
   xmlns:sodipodi="http://sodipodi.sourceforge.net/DTD/sodipodi-0.dtd"
   xmlns:inkscape="http://www.inkscape.org/namespaces/inkscape"
   width="69.056267mm"
   height="30.360935mm"
   viewBox="0 0 69.056267 30.360935"
   version="1.1"
   id="svg8"
   inkscape:version="0.92.5 (2060ec1f9f, 2020-04-08)"
   sodipodi:docname="ampConfigsD4.svg">
  <defs
     id="defs2">
    <marker
       style="overflow:visible"
       id="marker5909-3-9-7"
       orient="auto"
       refY="0"
       refX="0">
      <path
         style="font-size:12px;fill-rule:evenodd;stroke-width:0.625;stroke-linejoin:round"
         id="path5911-8-4-7"
         transform="scale(-0.6)"
         d="M 8.7185878,4.0337352 -2.2072895,0.01601326 8.7185884,-4.0017078 c -1.7454984,2.3720609 -1.7354408,5.6174519 -6e-7,8.035443 z"
         inkscape:connector-curvature="0" />
    </marker>
    <marker
       style="overflow:visible"
       id="marker5909-3-9-7-3"
       orient="auto"
       refY="0"
       refX="0">
      <path
         style="font-size:12px;fill-rule:evenodd;stroke-width:0.625;stroke-linejoin:round"
         id="path5911-8-4-7-6"
         transform="scale(-0.6)"
         d="M 8.7185878,4.0337352 -2.2072895,0.01601326 8.7185884,-4.0017078 c -1.7454984,2.3720609 -1.7354408,5.6174519 -6e-7,8.035443 z"
         inkscape:connector-curvature="0" />
    </marker>
    <marker
       style="overflow:visible"
       id="marker5909-3-9-7-7"
       orient="auto"
       refY="0"
       refX="0">
      <path
         style="font-size:12px;fill-rule:evenodd;stroke-width:0.625;stroke-linejoin:round"
         id="path5911-8-4-7-5"
         transform="scale(-0.6)"
         d="M 8.7185878,4.0337352 -2.2072895,0.01601326 8.7185884,-4.0017078 c -1.7454984,2.3720609 -1.7354408,5.6174519 -6e-7,8.035443 z"
         inkscape:connector-curvature="0" />
    </marker>
    <marker
       style="overflow:visible"
       id="marker5909-3-9-7-70"
       orient="auto"
       refY="0"
       refX="0">
      <path
         style="font-size:12px;fill-rule:evenodd;stroke-width:0.625;stroke-linejoin:round"
         id="path5911-8-4-7-6-3"
         transform="scale(-0.6)"
         d="M 8.7185878,4.0337352 -2.2072895,0.01601326 8.7185884,-4.0017078 c -1.7454984,2.3720609 -1.7354408,5.6174519 -6e-7,8.035443 z"
         inkscape:connector-curvature="0" />
    </marker>
    <marker
       style="overflow:visible"
       id="marker5909-3-9-7-5"
       orient="auto"
       refY="0"
       refX="0">
      <path
         style="font-size:12px;fill-rule:evenodd;stroke-width:0.625;stroke-linejoin:round"
         id="path5911-8-4-7-62"
         transform="scale(-0.6)"
         d="M 8.7185878,4.0337352 -2.2072895,0.01601326 8.7185884,-4.0017078 c -1.7454984,2.3720609 -1.7354408,5.6174519 -6e-7,8.035443 z"
         inkscape:connector-curvature="0" />
    </marker>
    <marker
       style="overflow:visible"
       id="marker5909-3-9-7-4"
       orient="auto"
       refY="0"
       refX="0">
      <path
         style="font-size:12px;fill-rule:evenodd;stroke-width:0.625;stroke-linejoin:round"
         id="path5911-8-4-7-0"
         transform="scale(-0.6)"
         d="M 8.7185878,4.0337352 -2.2072895,0.01601326 8.7185884,-4.0017078 c -1.7454984,2.3720609 -1.7354408,5.6174519 -6e-7,8.035443 z"
         inkscape:connector-curvature="0" />
    </marker>
    <marker
       style="overflow:visible"
       id="marker5909-3-9-7-4-9"
       orient="auto"
       refY="0"
       refX="0">
      <path
         style="font-size:12px;fill-rule:evenodd;stroke-width:0.625;stroke-linejoin:round"
         id="path5911-8-4-7-0-1"
         transform="scale(-0.6)"
         d="M 8.7185878,4.0337352 -2.2072895,0.01601326 8.7185884,-4.0017078 c -1.7454984,2.3720609 -1.7354408,5.6174519 -6e-7,8.035443 z"
         inkscape:connector-curvature="0" />
    </marker>
    <marker
       style="overflow:visible"
       id="marker5909-3-9"
       orient="auto"
       refY="0"
       refX="0">
      <path
         style="font-size:12px;fill-rule:evenodd;stroke-width:0.625;stroke-linejoin:round"
         id="path5911-8-4"
         transform="scale(-0.6)"
         d="M 8.7185878,4.0337352 -2.2072895,0.01601326 8.7185884,-4.0017078 c -1.7454984,2.3720609 -1.7354408,5.6174519 -6e-7,8.035443 z"
         inkscape:connector-curvature="0" />
    </marker>
    <marker
       style="overflow:visible"
       id="marker5909-3-9-2"
       orient="auto"
       refY="0"
       refX="0">
      <path
         style="font-size:12px;fill-rule:evenodd;stroke-width:0.625;stroke-linejoin:round"
         id="path5911-8-4-70"
         transform="scale(-0.6)"
         d="M 8.7185878,4.0337352 -2.2072895,0.01601326 8.7185884,-4.0017078 c -1.7454984,2.3720609 -1.7354408,5.6174519 -6e-7,8.035443 z"
         inkscape:connector-curvature="0" />
    </marker>
    <marker
       style="overflow:visible"
       id="Arrow2Mend-00"
       orient="auto"
       refY="0"
       refX="0">
      <path
         style="font-size:12px;fill-rule:evenodd;stroke-width:0.625;stroke-linejoin:round"
         id="path5872-4"
         transform="scale(-0.6)"
         d="M 8.7185878,4.0337352 -2.2072895,0.01601326 8.7185884,-4.0017078 c -1.7454984,2.3720609 -1.7354408,5.6174519 -6e-7,8.035443 z"
         inkscape:connector-curvature="0" />
    </marker>
    <marker
       style="overflow:visible"
       id="Arrow2Mend-00-9"
       orient="auto"
       refY="0"
       refX="0">
      <path
         style="font-size:12px;fill-rule:evenodd;stroke-width:0.625;stroke-linejoin:round"
         id="path5872-4-3"
         transform="scale(-0.6)"
         d="M 8.7185878,4.0337352 -2.2072895,0.01601326 8.7185884,-4.0017078 c -1.7454984,2.3720609 -1.7354408,5.6174519 -6e-7,8.035443 z"
         inkscape:connector-curvature="0" />
    </marker>
    <marker
       style="overflow:visible"
       id="marker5909-3-9-7-6"
       orient="auto"
       refY="0"
       refX="0">
      <path
         style="font-size:12px;fill-rule:evenodd;stroke-width:0.625;stroke-linejoin:round"
         id="path5911-8-4-7-7"
         transform="scale(-0.6)"
         d="M 8.7185878,4.0337352 -2.2072895,0.01601326 8.7185884,-4.0017078 c -1.7454984,2.3720609 -1.7354408,5.6174519 -6e-7,8.035443 z"
         inkscape:connector-curvature="0" />
    </marker>
    <marker
       style="overflow:visible"
       id="marker5909-3-9-7-3-5"
       orient="auto"
       refY="0"
       refX="0">
      <path
         style="font-size:12px;fill-rule:evenodd;stroke-width:0.625;stroke-linejoin:round"
         id="path5911-8-4-7-6-35"
         transform="scale(-0.6)"
         d="M 8.7185878,4.0337352 -2.2072895,0.01601326 8.7185884,-4.0017078 c -1.7454984,2.3720609 -1.7354408,5.6174519 -6e-7,8.035443 z"
         inkscape:connector-curvature="0" />
    </marker>
    <marker
       style="overflow:visible"
       id="marker5909-3-9-7-7-6"
       orient="auto"
       refY="0"
       refX="0">
      <path
         style="font-size:12px;fill-rule:evenodd;stroke-width:0.625;stroke-linejoin:round"
         id="path5911-8-4-7-5-2"
         transform="scale(-0.6)"
         d="M 8.7185878,4.0337352 -2.2072895,0.01601326 8.7185884,-4.0017078 c -1.7454984,2.3720609 -1.7354408,5.6174519 -6e-7,8.035443 z"
         inkscape:connector-curvature="0" />
    </marker>
    <marker
       style="overflow:visible"
       id="marker5909-3-9-7-70-9"
       orient="auto"
       refY="0"
       refX="0">
      <path
         style="font-size:12px;fill-rule:evenodd;stroke-width:0.625;stroke-linejoin:round"
         id="path5911-8-4-7-6-3-1"
         transform="scale(-0.6)"
         d="M 8.7185878,4.0337352 -2.2072895,0.01601326 8.7185884,-4.0017078 c -1.7454984,2.3720609 -1.7354408,5.6174519 -6e-7,8.035443 z"
         inkscape:connector-curvature="0" />
    </marker>
    <marker
       style="overflow:visible"
       id="marker5909-3-9-7-5-2"
       orient="auto"
       refY="0"
       refX="0">
      <path
         style="font-size:12px;fill-rule:evenodd;stroke-width:0.625;stroke-linejoin:round"
         id="path5911-8-4-7-62-7"
         transform="scale(-0.6)"
         d="M 8.7185878,4.0337352 -2.2072895,0.01601326 8.7185884,-4.0017078 c -1.7454984,2.3720609 -1.7354408,5.6174519 -6e-7,8.035443 z"
         inkscape:connector-curvature="0" />
    </marker>
    <marker
       style="overflow:visible"
       id="marker5909-3-9-7-4-0"
       orient="auto"
       refY="0"
       refX="0">
      <path
         style="font-size:12px;fill-rule:evenodd;stroke-width:0.625;stroke-linejoin:round"
         id="path5911-8-4-7-0-9"
         transform="scale(-0.6)"
         d="M 8.7185878,4.0337352 -2.2072895,0.01601326 8.7185884,-4.0017078 c -1.7454984,2.3720609 -1.7354408,5.6174519 -6e-7,8.035443 z"
         inkscape:connector-curvature="0" />
    </marker>
    <marker
       style="overflow:visible"
       id="marker5909-3-9-7-4-9-3"
       orient="auto"
       refY="0"
       refX="0">
      <path
         style="font-size:12px;fill-rule:evenodd;stroke-width:0.625;stroke-linejoin:round"
         id="path5911-8-4-7-0-1-6"
         transform="scale(-0.6)"
         d="M 8.7185878,4.0337352 -2.2072895,0.01601326 8.7185884,-4.0017078 c -1.7454984,2.3720609 -1.7354408,5.6174519 -6e-7,8.035443 z"
         inkscape:connector-curvature="0" />
    </marker>
    <marker
       style="overflow:visible"
       id="marker5909-3-9-0"
       orient="auto"
       refY="0"
       refX="0">
      <path
         style="font-size:12px;fill-rule:evenodd;stroke-width:0.625;stroke-linejoin:round"
         id="path5911-8-4-6"
         transform="scale(-0.6)"
         d="M 8.7185878,4.0337352 -2.2072895,0.01601326 8.7185884,-4.0017078 c -1.7454984,2.3720609 -1.7354408,5.6174519 -6e-7,8.035443 z"
         inkscape:connector-curvature="0" />
    </marker>
    <marker
       style="overflow:visible"
       id="marker5909-3-9-2-2"
       orient="auto"
       refY="0"
       refX="0">
      <path
         style="font-size:12px;fill-rule:evenodd;stroke-width:0.625;stroke-linejoin:round"
         id="path5911-8-4-70-6"
         transform="scale(-0.6)"
         d="M 8.7185878,4.0337352 -2.2072895,0.01601326 8.7185884,-4.0017078 c -1.7454984,2.3720609 -1.7354408,5.6174519 -6e-7,8.035443 z"
         inkscape:connector-curvature="0" />
    </marker>
    <marker
       style="overflow:visible"
       id="Arrow2Mend-00-1"
       orient="auto"
       refY="0"
       refX="0">
      <path
         style="font-size:12px;fill-rule:evenodd;stroke-width:0.625;stroke-linejoin:round"
         id="path5872-4-8"
         transform="scale(-0.6)"
         d="M 8.7185878,4.0337352 -2.2072895,0.01601326 8.7185884,-4.0017078 c -1.7454984,2.3720609 -1.7354408,5.6174519 -6e-7,8.035443 z"
         inkscape:connector-curvature="0" />
    </marker>
    <marker
       style="overflow:visible"
       id="Arrow2Mend-00-9-7"
       orient="auto"
       refY="0"
       refX="0">
      <path
         style="font-size:12px;fill-rule:evenodd;stroke-width:0.625;stroke-linejoin:round"
         id="path5872-4-3-9"
         transform="scale(-0.6)"
         d="M 8.7185878,4.0337352 -2.2072895,0.01601326 8.7185884,-4.0017078 c -1.7454984,2.3720609 -1.7354408,5.6174519 -6e-7,8.035443 z"
         inkscape:connector-curvature="0" />
    </marker>
    <marker
       style="overflow:visible"
       id="marker5909-3-9-7-0"
       orient="auto"
       refY="0"
       refX="0">
      <path
         style="font-size:12px;fill-rule:evenodd;stroke-width:0.625;stroke-linejoin:round"
         id="path5911-8-4-7-2"
         transform="scale(-0.6)"
         d="M 8.7185878,4.0337352 -2.2072895,0.01601326 8.7185884,-4.0017078 c -1.7454984,2.3720609 -1.7354408,5.6174519 -6e-7,8.035443 z"
         inkscape:connector-curvature="0" />
    </marker>
    <marker
       style="overflow:visible"
       id="marker5909-3-9-7-3-3"
       orient="auto"
       refY="0"
       refX="0">
      <path
         style="font-size:12px;fill-rule:evenodd;stroke-width:0.625;stroke-linejoin:round"
         id="path5911-8-4-7-6-7"
         transform="scale(-0.6)"
         d="M 8.7185878,4.0337352 -2.2072895,0.01601326 8.7185884,-4.0017078 c -1.7454984,2.3720609 -1.7354408,5.6174519 -6e-7,8.035443 z"
         inkscape:connector-curvature="0" />
    </marker>
    <marker
       style="overflow:visible"
       id="marker5909-3-9-7-7-5"
       orient="auto"
       refY="0"
       refX="0">
      <path
         style="font-size:12px;fill-rule:evenodd;stroke-width:0.625;stroke-linejoin:round"
         id="path5911-8-4-7-5-9"
         transform="scale(-0.6)"
         d="M 8.7185878,4.0337352 -2.2072895,0.01601326 8.7185884,-4.0017078 c -1.7454984,2.3720609 -1.7354408,5.6174519 -6e-7,8.035443 z"
         inkscape:connector-curvature="0" />
    </marker>
    <marker
       style="overflow:visible"
       id="marker5909-3-9-7-70-2"
       orient="auto"
       refY="0"
       refX="0">
      <path
         style="font-size:12px;fill-rule:evenodd;stroke-width:0.625;stroke-linejoin:round"
         id="path5911-8-4-7-6-3-2"
         transform="scale(-0.6)"
         d="M 8.7185878,4.0337352 -2.2072895,0.01601326 8.7185884,-4.0017078 c -1.7454984,2.3720609 -1.7354408,5.6174519 -6e-7,8.035443 z"
         inkscape:connector-curvature="0" />
    </marker>
    <marker
       style="overflow:visible"
       id="marker5909-3-9-7-5-8"
       orient="auto"
       refY="0"
       refX="0">
      <path
         style="font-size:12px;fill-rule:evenodd;stroke-width:0.625;stroke-linejoin:round"
         id="path5911-8-4-7-62-9"
         transform="scale(-0.6)"
         d="M 8.7185878,4.0337352 -2.2072895,0.01601326 8.7185884,-4.0017078 c -1.7454984,2.3720609 -1.7354408,5.6174519 -6e-7,8.035443 z"
         inkscape:connector-curvature="0" />
    </marker>
    <marker
       style="overflow:visible"
       id="marker5909-3-9-7-4-7"
       orient="auto"
       refY="0"
       refX="0">
      <path
         style="font-size:12px;fill-rule:evenodd;stroke-width:0.625;stroke-linejoin:round"
         id="path5911-8-4-7-0-3"
         transform="scale(-0.6)"
         d="M 8.7185878,4.0337352 -2.2072895,0.01601326 8.7185884,-4.0017078 c -1.7454984,2.3720609 -1.7354408,5.6174519 -6e-7,8.035443 z"
         inkscape:connector-curvature="0" />
    </marker>
    <marker
       style="overflow:visible"
       id="marker5909-3-9-7-4-9-6"
       orient="auto"
       refY="0"
       refX="0">
      <path
         style="font-size:12px;fill-rule:evenodd;stroke-width:0.625;stroke-linejoin:round"
         id="path5911-8-4-7-0-1-1"
         transform="scale(-0.6)"
         d="M 8.7185878,4.0337352 -2.2072895,0.01601326 8.7185884,-4.0017078 c -1.7454984,2.3720609 -1.7354408,5.6174519 -6e-7,8.035443 z"
         inkscape:connector-curvature="0" />
    </marker>
    <marker
       style="overflow:visible"
       id="marker5909-3-9-29"
       orient="auto"
       refY="0"
       refX="0">
      <path
         style="font-size:12px;fill-rule:evenodd;stroke-width:0.625;stroke-linejoin:round"
         id="path5911-8-4-3"
         transform="scale(-0.6)"
         d="M 8.7185878,4.0337352 -2.2072895,0.01601326 8.7185884,-4.0017078 c -1.7454984,2.3720609 -1.7354408,5.6174519 -6e-7,8.035443 z"
         inkscape:connector-curvature="0" />
    </marker>
    <marker
       style="overflow:visible"
       id="marker5909-3-9-2-1"
       orient="auto"
       refY="0"
       refX="0">
      <path
         style="font-size:12px;fill-rule:evenodd;stroke-width:0.625;stroke-linejoin:round"
         id="path5911-8-4-70-9"
         transform="scale(-0.6)"
         d="M 8.7185878,4.0337352 -2.2072895,0.01601326 8.7185884,-4.0017078 c -1.7454984,2.3720609 -1.7354408,5.6174519 -6e-7,8.035443 z"
         inkscape:connector-curvature="0" />
    </marker>
    <marker
       style="overflow:visible"
       id="Arrow2Mend-00-4"
       orient="auto"
       refY="0"
       refX="0">
      <path
         style="font-size:12px;fill-rule:evenodd;stroke-width:0.625;stroke-linejoin:round"
         id="path5872-4-7"
         transform="scale(-0.6)"
         d="M 8.7185878,4.0337352 -2.2072895,0.01601326 8.7185884,-4.0017078 c -1.7454984,2.3720609 -1.7354408,5.6174519 -6e-7,8.035443 z"
         inkscape:connector-curvature="0" />
    </marker>
    <marker
       style="overflow:visible"
       id="Arrow2Mend-00-9-8"
       orient="auto"
       refY="0"
       refX="0">
      <path
         style="font-size:12px;fill-rule:evenodd;stroke-width:0.625;stroke-linejoin:round"
         id="path5872-4-3-4"
         transform="scale(-0.6)"
         d="M 8.7185878,4.0337352 -2.2072895,0.01601326 8.7185884,-4.0017078 c -1.7454984,2.3720609 -1.7354408,5.6174519 -6e-7,8.035443 z"
         inkscape:connector-curvature="0" />
    </marker>
    <marker
       style="overflow:visible"
       id="Arrow2Mend-00-6"
       orient="auto"
       refY="0"
       refX="0">
      <path
         style="font-size:12px;fill-rule:evenodd;stroke-width:0.625;stroke-linejoin:round"
         id="path5872-4-0"
         transform="scale(-0.6)"
         d="M 8.7185878,4.0337352 -2.2072895,0.01601326 8.7185884,-4.0017078 c -1.7454984,2.3720609 -1.7354408,5.6174519 -6e-7,8.035443 z"
         inkscape:connector-curvature="0" />
    </marker>
    <marker
       style="overflow:visible"
       id="Arrow2Mend-00-62"
       orient="auto"
       refY="0"
       refX="0">
      <path
         style="font-size:12px;fill-rule:evenodd;stroke-width:0.625;stroke-linejoin:round"
         id="path5872-4-6"
         transform="scale(-0.6)"
         d="M 8.7185878,4.0337352 -2.2072895,0.01601326 8.7185884,-4.0017078 c -1.7454984,2.3720609 -1.7354408,5.6174519 -6e-7,8.035443 z"
         inkscape:connector-curvature="0" />
    </marker>
    <marker
       style="overflow:visible"
       id="Arrow2Mend-00-1-5"
       orient="auto"
       refY="0"
       refX="0">
      <path
         style="font-size:12px;fill-rule:evenodd;stroke-width:0.625;stroke-linejoin:round"
         id="path5872-4-8-0"
         transform="scale(-0.6)"
         d="M 8.7185878,4.0337352 -2.2072895,0.01601326 8.7185884,-4.0017078 c -1.7454984,2.3720609 -1.7354408,5.6174519 -6e-7,8.035443 z"
         inkscape:connector-curvature="0" />
    </marker>
    <marker
       style="overflow:visible"
       id="marker19115"
       orient="auto"
       refY="0"
       refX="0">
      <path
         style="font-size:12px;fill-rule:evenodd;stroke-width:0.625;stroke-linejoin:round"
         id="path19113"
         transform="scale(-0.6)"
         d="M 8.7185878,4.0337352 -2.2072895,0.01601326 8.7185884,-4.0017078 c -1.7454984,2.3720609 -1.7354408,5.6174519 -6e-7,8.035443 z"
         inkscape:connector-curvature="0" />
    </marker>
    <marker
       style="overflow:visible"
       id="Arrow2Mend-00-7"
       orient="auto"
       refY="0"
       refX="0">
      <path
         style="font-size:12px;fill-rule:evenodd;stroke-width:0.625;stroke-linejoin:round"
         id="path5872-4-9"
         transform="scale(-0.6)"
         d="M 8.7185878,4.0337352 -2.2072895,0.01601326 8.7185884,-4.0017078 c -1.7454984,2.3720609 -1.7354408,5.6174519 -6e-7,8.035443 z"
         inkscape:connector-curvature="0" />
    </marker>
    <marker
       style="overflow:visible"
       id="marker19358"
       orient="auto"
       refY="0"
       refX="0">
      <path
         style="font-size:12px;fill-rule:evenodd;stroke-width:0.625;stroke-linejoin:round"
         id="path19356"
         transform="scale(-0.6)"
         d="M 8.7185878,4.0337352 -2.2072895,0.01601326 8.7185884,-4.0017078 c -1.7454984,2.3720609 -1.7354408,5.6174519 -6e-7,8.035443 z"
         inkscape:connector-curvature="0" />
    </marker>
    <marker
       style="overflow:visible"
       id="marker5909-3-9-7-1"
       orient="auto"
       refY="0"
       refX="0">
      <path
         style="font-size:12px;fill-rule:evenodd;stroke-width:0.625;stroke-linejoin:round"
         id="path5911-8-4-7-06"
         transform="scale(-0.6)"
         d="M 8.7185878,4.0337352 -2.2072895,0.01601326 8.7185884,-4.0017078 c -1.7454984,2.3720609 -1.7354408,5.6174519 -6e-7,8.035443 z"
         inkscape:connector-curvature="0" />
    </marker>
    <marker
       style="overflow:visible"
       id="marker5909-3-9-7-3-32"
       orient="auto"
       refY="0"
       refX="0">
      <path
         style="font-size:12px;fill-rule:evenodd;stroke-width:0.625;stroke-linejoin:round"
         id="path5911-8-4-7-6-0"
         transform="scale(-0.6)"
         d="M 8.7185878,4.0337352 -2.2072895,0.01601326 8.7185884,-4.0017078 c -1.7454984,2.3720609 -1.7354408,5.6174519 -6e-7,8.035443 z"
         inkscape:connector-curvature="0" />
    </marker>
    <marker
       style="overflow:visible"
       id="marker5909-3-9-7-7-61"
       orient="auto"
       refY="0"
       refX="0">
      <path
         style="font-size:12px;fill-rule:evenodd;stroke-width:0.625;stroke-linejoin:round"
         id="path5911-8-4-7-5-5"
         transform="scale(-0.6)"
         d="M 8.7185878,4.0337352 -2.2072895,0.01601326 8.7185884,-4.0017078 c -1.7454984,2.3720609 -1.7354408,5.6174519 -6e-7,8.035443 z"
         inkscape:connector-curvature="0" />
    </marker>
    <marker
       style="overflow:visible"
       id="marker5909-3-9-7-70-5"
       orient="auto"
       refY="0"
       refX="0">
      <path
         style="font-size:12px;fill-rule:evenodd;stroke-width:0.625;stroke-linejoin:round"
         id="path5911-8-4-7-6-3-4"
         transform="scale(-0.6)"
         d="M 8.7185878,4.0337352 -2.2072895,0.01601326 8.7185884,-4.0017078 c -1.7454984,2.3720609 -1.7354408,5.6174519 -6e-7,8.035443 z"
         inkscape:connector-curvature="0" />
    </marker>
    <marker
       style="overflow:visible"
       id="marker5909-3-9-7-5-7"
       orient="auto"
       refY="0"
       refX="0">
      <path
         style="font-size:12px;fill-rule:evenodd;stroke-width:0.625;stroke-linejoin:round"
         id="path5911-8-4-7-62-6"
         transform="scale(-0.6)"
         d="M 8.7185878,4.0337352 -2.2072895,0.01601326 8.7185884,-4.0017078 c -1.7454984,2.3720609 -1.7354408,5.6174519 -6e-7,8.035443 z"
         inkscape:connector-curvature="0" />
    </marker>
    <marker
       style="overflow:visible"
       id="marker5909-3-9-7-4-5"
       orient="auto"
       refY="0"
       refX="0">
      <path
         style="font-size:12px;fill-rule:evenodd;stroke-width:0.625;stroke-linejoin:round"
         id="path5911-8-4-7-0-6"
         transform="scale(-0.6)"
         d="M 8.7185878,4.0337352 -2.2072895,0.01601326 8.7185884,-4.0017078 c -1.7454984,2.3720609 -1.7354408,5.6174519 -6e-7,8.035443 z"
         inkscape:connector-curvature="0" />
    </marker>
    <marker
       style="overflow:visible"
       id="marker5909-3-9-7-4-9-9"
       orient="auto"
       refY="0"
       refX="0">
      <path
         style="font-size:12px;fill-rule:evenodd;stroke-width:0.625;stroke-linejoin:round"
         id="path5911-8-4-7-0-1-3"
         transform="scale(-0.6)"
         d="M 8.7185878,4.0337352 -2.2072895,0.01601326 8.7185884,-4.0017078 c -1.7454984,2.3720609 -1.7354408,5.6174519 -6e-7,8.035443 z"
         inkscape:connector-curvature="0" />
    </marker>
    <marker
       style="overflow:visible"
       id="marker5909-3-9-74"
       orient="auto"
       refY="0"
       refX="0">
      <path
         style="font-size:12px;fill-rule:evenodd;stroke-width:0.625;stroke-linejoin:round"
         id="path5911-8-4-5"
         transform="scale(-0.6)"
         d="M 8.7185878,4.0337352 -2.2072895,0.01601326 8.7185884,-4.0017078 c -1.7454984,2.3720609 -1.7354408,5.6174519 -6e-7,8.035443 z"
         inkscape:connector-curvature="0" />
    </marker>
    <marker
       style="overflow:visible"
       id="marker5909-3-9-2-25"
       orient="auto"
       refY="0"
       refX="0">
      <path
         style="font-size:12px;fill-rule:evenodd;stroke-width:0.625;stroke-linejoin:round"
         id="path5911-8-4-70-4"
         transform="scale(-0.6)"
         d="M 8.7185878,4.0337352 -2.2072895,0.01601326 8.7185884,-4.0017078 c -1.7454984,2.3720609 -1.7354408,5.6174519 -6e-7,8.035443 z"
         inkscape:connector-curvature="0" />
    </marker>
    <marker
       style="overflow:visible"
       id="Arrow2Mend-00-74"
       orient="auto"
       refY="0"
       refX="0">
      <path
         style="font-size:12px;fill-rule:evenodd;stroke-width:0.625;stroke-linejoin:round"
         id="path5872-4-4"
         transform="scale(-0.6)"
         d="M 8.7185878,4.0337352 -2.2072895,0.01601326 8.7185884,-4.0017078 c -1.7454984,2.3720609 -1.7354408,5.6174519 -6e-7,8.035443 z"
         inkscape:connector-curvature="0" />
    </marker>
    <marker
       style="overflow:visible"
       id="Arrow2Mend-00-9-3"
       orient="auto"
       refY="0"
       refX="0">
      <path
         style="font-size:12px;fill-rule:evenodd;stroke-width:0.625;stroke-linejoin:round"
         id="path5872-4-3-0"
         transform="scale(-0.6)"
         d="M 8.7185878,4.0337352 -2.2072895,0.01601326 8.7185884,-4.0017078 c -1.7454984,2.3720609 -1.7354408,5.6174519 -6e-7,8.035443 z"
         inkscape:connector-curvature="0" />
    </marker>
    <marker
       style="overflow:visible"
       id="Arrow2Mend-00-6-7"
       orient="auto"
       refY="0"
       refX="0">
      <path
         style="font-size:12px;fill-rule:evenodd;stroke-width:0.625;stroke-linejoin:round"
         id="path5872-4-0-8"
         transform="scale(-0.6)"
         d="M 8.7185878,4.0337352 -2.2072895,0.01601326 8.7185884,-4.0017078 c -1.7454984,2.3720609 -1.7354408,5.6174519 -6e-7,8.035443 z"
         inkscape:connector-curvature="0" />
    </marker>
    <marker
       style="overflow:visible"
       id="Arrow2Mend-00-62-6"
       orient="auto"
       refY="0"
       refX="0">
      <path
         style="font-size:12px;fill-rule:evenodd;stroke-width:0.625;stroke-linejoin:round"
         id="path5872-4-6-8"
         transform="scale(-0.6)"
         d="M 8.7185878,4.0337352 -2.2072895,0.01601326 8.7185884,-4.0017078 c -1.7454984,2.3720609 -1.7354408,5.6174519 -6e-7,8.035443 z"
         inkscape:connector-curvature="0" />
    </marker>
    <marker
       style="overflow:visible"
       id="Arrow2Mend-00-1-8"
       orient="auto"
       refY="0"
       refX="0">
      <path
         style="font-size:12px;fill-rule:evenodd;stroke-width:0.625;stroke-linejoin:round"
         id="path5872-4-8-4"
         transform="scale(-0.6)"
         d="M 8.7185878,4.0337352 -2.2072895,0.01601326 8.7185884,-4.0017078 c -1.7454984,2.3720609 -1.7354408,5.6174519 -6e-7,8.035443 z"
         inkscape:connector-curvature="0" />
    </marker>
    <marker
       style="overflow:visible"
       id="marker19115-3"
       orient="auto"
       refY="0"
       refX="0">
      <path
         style="font-size:12px;fill-rule:evenodd;stroke-width:0.625;stroke-linejoin:round"
         id="path19113-1"
         transform="scale(-0.6)"
         d="M 8.7185878,4.0337352 -2.2072895,0.01601326 8.7185884,-4.0017078 c -1.7454984,2.3720609 -1.7354408,5.6174519 -6e-7,8.035443 z"
         inkscape:connector-curvature="0" />
    </marker>
    <marker
       style="overflow:visible"
       id="Arrow2Mend-00-7-4"
       orient="auto"
       refY="0"
       refX="0">
      <path
         style="font-size:12px;fill-rule:evenodd;stroke-width:0.625;stroke-linejoin:round"
         id="path5872-4-9-9"
         transform="scale(-0.6)"
         d="M 8.7185878,4.0337352 -2.2072895,0.01601326 8.7185884,-4.0017078 c -1.7454984,2.3720609 -1.7354408,5.6174519 -6e-7,8.035443 z"
         inkscape:connector-curvature="0" />
    </marker>
    <marker
       style="overflow:visible"
       id="marker19358-2"
       orient="auto"
       refY="0"
       refX="0">
      <path
         style="font-size:12px;fill-rule:evenodd;stroke-width:0.625;stroke-linejoin:round"
         id="path19356-0"
         transform="scale(-0.6)"
         d="M 8.7185878,4.0337352 -2.2072895,0.01601326 8.7185884,-4.0017078 c -1.7454984,2.3720609 -1.7354408,5.6174519 -6e-7,8.035443 z"
         inkscape:connector-curvature="0" />
    </marker>
    <marker
       style="overflow:visible"
       id="marker5909"
       orient="auto"
       refY="0"
       refX="0">
      <path
         style="font-size:12px;fill-rule:evenodd;stroke-width:0.625;stroke-linejoin:round"
         id="path5911"
         transform="scale(-0.6)"
         d="M 8.7185878,4.0337352 -2.2072895,0.01601326 8.7185884,-4.0017078 c -1.7454984,2.3720609 -1.7354408,5.6174519 -6e-7,8.035443 z"
         inkscape:connector-curvature="0" />
    </marker>
    <marker
       style="overflow:visible"
       id="marker5909-2"
       orient="auto"
       refY="0"
       refX="0">
      <path
         style="font-size:12px;fill-rule:evenodd;stroke-width:0.625;stroke-linejoin:round"
         id="path5911-0"
         transform="scale(-0.6)"
         d="M 8.7185878,4.0337352 -2.2072895,0.01601326 8.7185884,-4.0017078 c -1.7454984,2.3720609 -1.7354408,5.6174519 -6e-7,8.035443 z"
         inkscape:connector-curvature="0" />
    </marker>
  </defs>
  <sodipodi:namedview
     id="base"
     pagecolor="#ffffff"
     bordercolor="#666666"
     borderopacity="1.0"
     inkscape:pageopacity="0.0"
     inkscape:pageshadow="2"
     inkscape:zoom="1.979899"
     inkscape:cx="251.12676"
     inkscape:cy="265.7282"
     inkscape:document-units="mm"
     inkscape:current-layer="g3550"
     showgrid="true"
     inkscape:window-width="2560"
     inkscape:window-height="1375"
     inkscape:window-x="2560"
     inkscape:window-y="0"
     inkscape:window-maximized="1"
     fit-margin-top="0"
     fit-margin-left="0"
     fit-margin-right="0"
     fit-margin-bottom="0">
    <inkscape:grid
       type="xygrid"
       id="grid815"
       originx="-1.8546875"
       originy="-100.5086" />
  </sodipodi:namedview>
  <metadata
     id="metadata5">
    <rdf:RDF>
      <cc:Work
         rdf:about="">
        <dc:format>image/svg+xml</dc:format>
        <dc:type
           rdf:resource="http://purl.org/dc/dcmitype/StillImage" />
        <dc:title></dc:title>
      </cc:Work>
    </rdf:RDF>
  </metadata>
  <g
     inkscape:label="Layer 1"
     inkscape:groupmode="layer"
     id="layer1"
     transform="translate(-1.8546875,-166.13046)">
    <g
       transform="translate(104.38754,-76.065516)"
       id="layer1-3-9-6"
       inkscape:label="Layer 1">
      <g
         id="g5708-22-6"
         transform="matrix(0.26458333,0,0,0.26458333,-141.42703,-707.22616)" />
    </g>
    <g
       id="g3550"
       transform="translate(31.74826,4.8433075e-6)">
      <g
         transform="matrix(0.396875,0,0,0.396875,-111.45072,-1090.968)"
         id="g5708-22-8-9-4-3">
        <path
           inkscape:connector-curvature="0"
           d="m 355.0018,3187.9766 c 0,2.7623 -2.24267,5.0016 -5.00915,5.0016 -2.76648,0 -5.00915,-2.2393 -5.00915,-5.0016 0,-2.7624 2.24267,-5.0017 5.00915,-5.0017 2.76648,0 5.00915,2.2393 5.00915,5.0017 z"
           id="path3291-4-8-4-6-9-9-2"
           style="fill:none;stroke:#000000;stroke-width:1;stroke-miterlimit:4;stroke-dasharray:none;stroke-opacity:1" />
        <path
           inkscape:connector-curvature="0"
           d="m 355,3197.9922 c 0,2.7623 -2.24267,5.0017 -5.00915,5.0017 -2.76648,0 -5.00916,-2.2394 -5.00916,-5.0017 0,-2.7624 2.24268,-5.0017 5.00916,-5.0017 2.76648,0 5.00915,2.2393 5.00915,5.0017 z"
           id="path3291-4-3-4-7-2-1-9-7"
           style="fill:none;stroke:#000000;stroke-width:1;stroke-miterlimit:4;stroke-dasharray:none;stroke-opacity:1" />
        <path
           inkscape:connector-curvature="0"
           d="m 334.99399,3193.0299 c 0,-5.5411 -2.22925,-10.033 -4.97918,-10.033 -2.74993,0 -4.97919,4.4919 -4.97919,10.033 0,5.5411 2.22926,10.033 4.97919,10.033 2.74993,0 4.97918,-4.4919 4.97918,-10.033 z"
           id="path3263-7-9-7-8-4-3-2"
           style="fill:none;stroke:#000000;stroke-width:1;stroke-miterlimit:4;stroke-dasharray:none;stroke-opacity:1" />
        <path
           inkscape:connector-curvature="0"
           d="m 329.99179,3172.9922 v 10"
           id="path4195-6-2-9-71-5-4-9-6-1"
           style="fill:none;stroke:#000000;stroke-width:1;stroke-linecap:round;stroke-linejoin:miter;stroke-miterlimit:4;stroke-dasharray:none;stroke-opacity:1" />
        <path
           inkscape:connector-curvature="0"
           d="m 329.99179,3202.9922 v 10"
           id="path4195-6-2-9-97-4-7-1-0-3"
           style="fill:none;stroke:#000000;stroke-width:1;stroke-linecap:round;stroke-linejoin:miter;stroke-miterlimit:4;stroke-dasharray:none;stroke-opacity:1" />
        <path
           inkscape:connector-curvature="0"
           d="m 349.99836,3202.9922 v 10"
           id="path4195-6-2-9-73-8-2-0-5-4"
           style="fill:none;stroke:#000000;stroke-width:1;stroke-linecap:round;stroke-linejoin:miter;stroke-miterlimit:4;stroke-dasharray:none;stroke-opacity:1" />
        <path
           inkscape:connector-curvature="0"
           d="m 349.99836,3172.9922 v 10"
           id="path4195-6-2-9-63-1-4-7-0-9"
           style="fill:none;stroke:#000000;stroke-width:1;stroke-linecap:round;stroke-linejoin:miter;stroke-miterlimit:4;stroke-dasharray:none;stroke-opacity:1" />
        <path
           inkscape:connector-curvature="0"
           d="M 329.99179,3172.9922 H 319.9885"
           id="path4195-6-2-9-81-2-0-5-2-4"
           style="fill:none;stroke:#000000;stroke-width:1;stroke-linecap:round;stroke-linejoin:miter;stroke-miterlimit:4;stroke-dasharray:none;stroke-opacity:1" />
        <path
           inkscape:connector-curvature="0"
           d="M 360.00165,3172.9922 H 349.99836"
           id="path4195-6-2-9-81-9-89-6-8-9-1"
           style="fill:none;stroke:#000000;stroke-width:1;stroke-linecap:round;stroke-linejoin:miter;stroke-miterlimit:4;stroke-dasharray:none;stroke-opacity:1" />
        <path
           inkscape:connector-curvature="0"
           d="M 329.99179,3212.9922 H 319.9885"
           id="path4195-6-2-9-81-8-3-2-7-4-9"
           style="fill:none;stroke:#000000;stroke-width:1;stroke-linecap:round;stroke-linejoin:miter;stroke-miterlimit:4;stroke-dasharray:none;stroke-opacity:1" />
        <path
           inkscape:connector-curvature="0"
           d="M 360.00165,3212.9922 H 349.99836"
           id="path4195-6-2-9-81-5-6-9-0-3-5"
           style="fill:none;stroke:#000000;stroke-width:1;stroke-linecap:round;stroke-linejoin:miter;stroke-miterlimit:4;stroke-dasharray:none;stroke-opacity:1" />
      </g>
      <g
         id="g5936-9-3-6-5-1-4"
         transform="matrix(-0.396875,0,0,0.396875,35.39368,151.50079)">
        <path
           inkscape:connector-curvature="0"
           d="M 45,92.36218 H 55"
           id="path2500-5-9-9-2-7-1"
           style="fill:none;stroke:#000000;stroke-width:2;stroke-linecap:butt;stroke-linejoin:miter;stroke-miterlimit:4;stroke-dasharray:none;stroke-opacity:1" />
        <path
           inkscape:connector-curvature="0"
           d="m 50,82.36218 v 10"
           id="path7780-0-1-3-9-4-2"
           style="fill:none;stroke:#000000;stroke-width:1;stroke-linecap:round;stroke-linejoin:miter;stroke-miterlimit:4;stroke-dasharray:none;stroke-opacity:1" />
      </g>
      <path
         style="fill:none;stroke:#000000;stroke-width:0.39687499px;stroke-linecap:butt;stroke-linejoin:miter;stroke-opacity:1"
         d="m 31.424923,184.18828 v 7.93749 H 9.596809 v -23.8125 h 5.953125"
         id="path2969-3-2"
         inkscape:connector-curvature="0" />
      <g
         transform="matrix(-0.396875,0,0,0.396875,140.56424,-9.2335951)"
         id="g4343-2-9-1-6-6">
        <g
           id="g5100-2-0-0-94-2">
          <g
             transform="translate(50,-14.999997)"
             id="g6051-8-5-2-0">
            <path
               d="m 307,28.362183 a 1,1 0 1 1 -2,0 1,1 0 1 1 2,0 z"
               transform="matrix(2,0,0,1.9999986,-235,405.63786)"
               id="path6451-0-4-5-8-1-2-2"
               style="fill:none;stroke:#000000;stroke-width:0.5;stroke-miterlimit:4;stroke-dasharray:none;stroke-opacity:1"
               inkscape:connector-curvature="0" />
            <path
               d="m 370,462.36218 h 5"
               id="path4181-8-4-3-5-1-6-2"
               style="opacity:0.98999999;fill:none;stroke:#000000;stroke-width:1;stroke-linecap:round;stroke-miterlimit:4;stroke-dasharray:none;stroke-dashoffset:0;stroke-opacity:1"
               inkscape:connector-curvature="0" />
          </g>
        </g>
      </g>
      <g
         transform="matrix(0.396875,0,0,0.396875,-149.15514,-1083.0305)"
         id="g5708-22-8-1-7">
        <path
           inkscape:connector-curvature="0"
           d="m 355.0018,3187.9766 c 0,2.7623 -2.24267,5.0016 -5.00915,5.0016 -2.76648,0 -5.00915,-2.2393 -5.00915,-5.0016 0,-2.7624 2.24267,-5.0017 5.00915,-5.0017 2.76648,0 5.00915,2.2393 5.00915,5.0017 z"
           id="path3291-4-8-4-6-2-4"
           style="fill:none;stroke:#000000;stroke-width:1;stroke-miterlimit:4;stroke-dasharray:none;stroke-opacity:1" />
        <path
           inkscape:connector-curvature="0"
           d="m 355,3197.9922 c 0,2.7623 -2.24267,5.0017 -5.00915,5.0017 -2.76648,0 -5.00916,-2.2394 -5.00916,-5.0017 0,-2.7624 2.24268,-5.0017 5.00916,-5.0017 2.76648,0 5.00915,2.2393 5.00915,5.0017 z"
           id="path3291-4-3-4-7-2-8-3"
           style="fill:none;stroke:#000000;stroke-width:1;stroke-miterlimit:4;stroke-dasharray:none;stroke-opacity:1" />
        <path
           inkscape:connector-curvature="0"
           d="m 334.99399,3193.0299 c 0,-5.5411 -2.22925,-10.033 -4.97918,-10.033 -2.74993,0 -4.97919,4.4919 -4.97919,10.033 0,5.5411 2.22926,10.033 4.97919,10.033 2.74993,0 4.97918,-4.4919 4.97918,-10.033 z"
           id="path3263-7-9-7-8-8-5"
           style="fill:none;stroke:#000000;stroke-width:1;stroke-miterlimit:4;stroke-dasharray:none;stroke-opacity:1" />
        <path
           inkscape:connector-curvature="0"
           d="m 329.99179,3172.9922 v 10"
           id="path4195-6-2-9-71-5-4-92-6"
           style="fill:none;stroke:#000000;stroke-width:1;stroke-linecap:round;stroke-linejoin:miter;stroke-miterlimit:4;stroke-dasharray:none;stroke-opacity:1" />
        <path
           inkscape:connector-curvature="0"
           d="m 329.99179,3202.9922 v 10"
           id="path4195-6-2-9-97-4-7-8-1"
           style="fill:none;stroke:#000000;stroke-width:1;stroke-linecap:round;stroke-linejoin:miter;stroke-miterlimit:4;stroke-dasharray:none;stroke-opacity:1" />
        <path
           inkscape:connector-curvature="0"
           d="m 349.99836,3202.9922 v 10"
           id="path4195-6-2-9-73-8-2-8-4"
           style="fill:none;stroke:#000000;stroke-width:1;stroke-linecap:round;stroke-linejoin:miter;stroke-miterlimit:4;stroke-dasharray:none;stroke-opacity:1" />
        <path
           inkscape:connector-curvature="0"
           d="m 349.99836,3172.9922 v 10"
           id="path4195-6-2-9-63-1-4-8-0"
           style="fill:none;stroke:#000000;stroke-width:1;stroke-linecap:round;stroke-linejoin:miter;stroke-miterlimit:4;stroke-dasharray:none;stroke-opacity:1" />
        <path
           inkscape:connector-curvature="0"
           d="M 329.99179,3172.9922 H 319.9885"
           id="path4195-6-2-9-81-2-0-6-3"
           style="fill:none;stroke:#000000;stroke-width:1;stroke-linecap:round;stroke-linejoin:miter;stroke-miterlimit:4;stroke-dasharray:none;stroke-opacity:1" />
        <path
           inkscape:connector-curvature="0"
           d="M 360.00165,3172.9922 H 349.99836"
           id="path4195-6-2-9-81-9-89-6-83-1"
           style="fill:none;stroke:#000000;stroke-width:1;stroke-linecap:round;stroke-linejoin:miter;stroke-miterlimit:4;stroke-dasharray:none;stroke-opacity:1" />
        <path
           inkscape:connector-curvature="0"
           d="M 329.99179,3212.9922 H 319.9885"
           id="path4195-6-2-9-81-8-3-2-8-2"
           style="fill:none;stroke:#000000;stroke-width:1;stroke-linecap:round;stroke-linejoin:miter;stroke-miterlimit:4;stroke-dasharray:none;stroke-opacity:1" />
        <path
           inkscape:connector-curvature="0"
           d="M 360.00165,3212.9922 H 349.99836"
           id="path4195-6-2-9-81-5-6-9-3-7"
           style="fill:none;stroke:#000000;stroke-width:1;stroke-linecap:round;stroke-linejoin:miter;stroke-miterlimit:4;stroke-dasharray:none;stroke-opacity:1" />
      </g>
      <g
         id="g6192-9-0-3-9"
         transform="matrix(0,0.396875,0.396875,0,-27.060771,15.516412)">
        <rect
           width="10"
           height="20"
           x="380"
           y="22.362188"
           id="rect6682-2-8-8-8"
           style="fill:none;stroke:#000000;stroke-width:1;stroke-linecap:round;stroke-miterlimit:4;stroke-dasharray:none;stroke-opacity:1" />
        <path
           d="M 385,12.3621 V 22.3622"
           id="path6684-6-1-0-1"
           style="fill:none;stroke:#000000;stroke-width:0.99921298;stroke-linecap:round;stroke-linejoin:miter;stroke-miterlimit:4;stroke-dasharray:none;stroke-opacity:1"
           inkscape:connector-curvature="0" />
        <path
           d="m 385,42.3622 v 10"
           id="path6684-3-6-3-4-0"
           style="fill:none;stroke:#000000;stroke-width:0.99921298;stroke-linecap:round;stroke-linejoin:miter;stroke-miterlimit:4;stroke-dasharray:none;stroke-opacity:1"
           inkscape:connector-curvature="0" />
      </g>
      <g
         id="g5936-9-3-6-6-6"
         transform="matrix(-0.396875,0,0,0.396875,13.562965,159.43828)">
        <path
           inkscape:connector-curvature="0"
           d="M 45,92.36218 H 55"
           id="path2500-5-9-9-8-0"
           style="fill:none;stroke:#000000;stroke-width:2;stroke-linecap:butt;stroke-linejoin:miter;stroke-miterlimit:4;stroke-dasharray:none;stroke-opacity:1" />
        <path
           inkscape:connector-curvature="0"
           d="m 50,82.36218 v 10"
           id="path7780-0-1-3-90-1"
           style="fill:none;stroke:#000000;stroke-width:1;stroke-linecap:round;stroke-linejoin:miter;stroke-miterlimit:4;stroke-dasharray:none;stroke-opacity:1" />
      </g>
      <g
         id="g5936-9-3-8-8-2"
         transform="matrix(-0.396875,0,0,0.396875,-2.3120448,159.43828)">
        <path
           inkscape:connector-curvature="0"
           d="M 45,92.36218 H 55"
           id="path2500-5-9-0-7-5"
           style="fill:none;stroke:#000000;stroke-width:2;stroke-linecap:butt;stroke-linejoin:miter;stroke-miterlimit:4;stroke-dasharray:none;stroke-opacity:1" />
        <path
           inkscape:connector-curvature="0"
           d="m 50,82.36218 v 10"
           id="path7780-0-1-5-9-1"
           style="fill:none;stroke:#000000;stroke-width:1;stroke-linecap:round;stroke-linejoin:miter;stroke-miterlimit:4;stroke-dasharray:none;stroke-opacity:1" />
      </g>
      <g
         id="g6192-9-0-3-3-7"
         transform="matrix(0,0.396875,0.396875,0,-11.185764,15.516397)">
        <rect
           width="10"
           height="20"
           x="380"
           y="22.362188"
           id="rect6682-2-8-8-3-1"
           style="fill:none;stroke:#000000;stroke-width:1;stroke-linecap:round;stroke-miterlimit:4;stroke-dasharray:none;stroke-opacity:1" />
        <path
           d="M 385,12.3621 V 22.3622"
           id="path6684-6-1-0-3-3"
           style="fill:none;stroke:#000000;stroke-width:0.99921298;stroke-linecap:round;stroke-linejoin:miter;stroke-miterlimit:4;stroke-dasharray:none;stroke-opacity:1"
           inkscape:connector-curvature="0" />
        <path
           d="m 385,42.3622 v 10"
           id="path6684-3-6-3-4-7-1"
           style="fill:none;stroke:#000000;stroke-width:0.99921298;stroke-linecap:round;stroke-linejoin:miter;stroke-miterlimit:4;stroke-dasharray:none;stroke-opacity:1"
           inkscape:connector-curvature="0" />
      </g>
      <path
         style="fill:none;stroke:#000000;stroke-width:0.39687499px;stroke-linecap:butt;stroke-linejoin:miter;stroke-opacity:1"
         d="m 31.423621,168.31327 h 3.968738"
         id="path1980-4-80-8-3-2"
         inkscape:connector-curvature="0" />
      <g
         transform="matrix(0.396875,0,0,0.396875,-131.29512,-9.2335951)"
         id="g4343-2-7-9-8-6-6-6">
        <g
           id="g5100-2-1-6-5-1-5-8">
          <g
             transform="translate(50,-14.999997)"
             id="g6051-7-3-06-3-2-7">
            <path
               d="m 307,28.362183 a 1,1 0 1 1 -2,0 1,1 0 1 1 2,0 z"
               transform="matrix(2,0,0,1.9999986,-235,405.63786)"
               id="path6451-0-4-5-2-8-4-2-6-4"
               style="fill:none;stroke:#000000;stroke-width:0.5;stroke-miterlimit:4;stroke-dasharray:none;stroke-opacity:1"
               inkscape:connector-curvature="0" />
            <path
               d="m 370,462.36218 h 5"
               id="path4181-8-4-3-7-5-6-1-5-9"
               style="opacity:0.98999999;fill:none;stroke:#000000;stroke-width:1;stroke-linecap:round;stroke-miterlimit:4;stroke-dasharray:none;stroke-dashoffset:0;stroke-opacity:1"
               inkscape:connector-curvature="0" />
          </g>
        </g>
      </g>
      <path
         style="fill:none;stroke:#000000;stroke-width:0.39687499px;stroke-linecap:butt;stroke-linejoin:miter;stroke-opacity:1"
         d="m -6.2795091,176.25077 v -7.9375"
         id="path3212-2"
         inkscape:connector-curvature="0" />
      <path
         style="fill:none;stroke:#000000;stroke-width:0.39687499px;stroke-linecap:butt;stroke-linejoin:miter;stroke-opacity:1"
         d="m -22.154501,176.25077 v -7.9375 h -3.968761"
         id="path3214-4"
         inkscape:connector-curvature="0" />
    </g>
  </g>
</svg>
